<svg width="25" height="25" fill="none" xmlns="http://www.w3.org/2000/svg"><g clip-path="url(#a)"><path d="M23.62 0H1.37882C.617218.0003815-.0001907.618172 0 1.37997V23.6212c.0003815.7616.618172 1.379 1.37997 1.3788H23.62c.762.0002 1.3798-.6174 1.38-1.3794V1.37882C24.9996.617218 24.3818-.0001907 23.62 0Z" fill="#4267B2"/><path d="M17.2607 25v-9.6679H20.52l.4883-3.7842h-3.7476V9.13776c0-1.0931.3035-1.83792 1.871-1.83792h1.9865V3.92441c-.3456-.04597-1.5314-.14878-2.9112-.14878-2.8809 0-4.8525 1.75782-4.8525 4.98734v2.78493h-3.2471v3.7842h3.2471V25h3.9062Z" fill="#fff"/></g><defs><clipPath id="a"><path fill="#fff" d="M0 0h25v25H0z"/></clipPath></defs></svg>