<svg width="262" height="19" fill="none" xmlns="http://www.w3.org/2000/svg"><path d="M1.28 18c-.16 0-.304-.056-.432-.168C.736 17.704.68 17.56.68 17.4V1.8c0-.176.056-.32.168-.432.128-.112.272-.168.432-.168h2.544c.4 0 .672.152.816.456l5.856 9.216V1.8c0-.176.056-.32.168-.432.128-.112.272-.168.432-.168h2.88c.176 0 .32.056.432.168.112.112.168.256.168.432v15.576c0 .176-.056.328-.168.456-.112.112-.256.168-.432.168h-2.568c-.352 0-.616-.152-.792-.456L4.76 8.664V17.4c0 .16-.056.304-.168.432-.112.112-.256.168-.432.168H1.28Zm15.69 0c-.128 0-.248-.048-.36-.144-.096-.112-.144-.232-.144-.36 0-.096.008-.168.024-.216l5.64-15.408c.048-.192.152-.352.312-.48s.368-.192.624-.192h3.552c.256 0 .464.064.624.192.16.128.264.288.312.48L33.17 17.28l.048.216c0 .128-.056.248-.168.36-.096.096-.216.144-.36.144h-2.952c-.384 0-.64-.168-.768-.504l-.936-2.448h-6.408l-.912 2.448c-.128.336-.392.504-.792.504H16.97Zm10.104-6.408-2.232-6.336-2.232 6.336h4.464ZM35.7097 18c-.16 0-.304-.056-.432-.168-.112-.128-.168-.272-.168-.432V1.8c0-.176.056-.32.168-.432.128-.112.272-.168.432-.168h2.592c.384 0 .664.176.84.528l4.224 7.56 4.224-7.56c.176-.352.456-.528.84-.528h2.568c.176 0 .32.056.432.168.128.112.192.256.192.432v15.6c0 .176-.064.32-.192.432-.112.112-.256.168-.432.168h-2.856c-.176 0-.328-.056-.456-.168-.112-.112-.168-.256-.168-.432v-9l-2.688 5.016c-.208.368-.488.552-.84.552h-1.248c-.208 0-.376-.048-.504-.144-.128-.096-.24-.232-.336-.408L39.1897 8.4v9c0 .16-.056.304-.168.432-.112.112-.256.168-.432.168h-2.88Zm18.315 0c-.128 0-.248-.048-.36-.144-.096-.112-.144-.232-.144-.36 0-.096.008-.168.024-.216l5.64-15.408c.048-.192.152-.352.312-.48s.368-.192.624-.192h3.552c.256 0 .464.064.624.192.16.128.264.288.312.48l5.616 15.408.048.216c0 .128-.056.248-.168.36-.096.096-.216.144-.36.144h-2.952c-.384 0-.64-.168-.768-.504l-.936-2.448h-6.408l-.912 2.448c-.128.336-.392.504-.792.504h-2.952Zm10.104-6.408-2.232-6.336-2.232 6.336h4.464ZM72.7644 18c-.16 0-.304-.056-.432-.168-.112-.128-.168-.272-.168-.432V1.8c0-.176.056-.32.168-.432.128-.112.272-.168.432-.168h2.544c.4 0 .672.152.816.456l5.856 9.216V1.8c0-.176.056-.32.168-.432.128-.112.272-.168.432-.168h2.88c.176 0 .32.056.432.168.112.112.168.256.168.432v15.576c0 .176-.056.328-.168.456-.112.112-.256.168-.432.168h-2.568c-.352 0-.616-.152-.792-.456l-5.856-8.88V17.4c0 .16-.056.304-.168.432-.112.112-.256.168-.432.168h-2.88Zm23.586.24c-2.304 0-4.104-.56-5.4-1.68-1.296-1.136-1.984-2.744-2.064-4.824-.016-.464-.024-1.2-.024-2.208 0-1.008.008-1.744.024-2.208.08-2.032.776-3.6 2.088-4.704 1.328-1.104 3.12-1.656001 5.376-1.656001 1.52 0 2.84.248001 3.9596.744001 1.136.496 2 1.128 2.592 1.896.608.768.928 1.56.96 2.376 0 .144-.056.264-.168.36-.096.096-.216.144-.36.144h-3.5036c-.16 0-.288-.024-.384-.072-.096-.048-.176-.136-.24-.264-.208-.464-.536-.864-.984-1.2-.448-.352-1.072-.528-1.872-.528-1.904 0-2.904 1.008-3 3.024-.016.448-.024 1.144-.024 2.088 0 .928.008 1.624.024 2.088.096 2.112 1.12 3.168 3.072 3.168.944 0 1.696-.24 2.256-.72.576-.496.864-1.248.864-2.256v-.456h-2.256c-.176 0-.32-.056-.432-.168-.112-.128-.168-.28-.168-.456V8.952c0-.176.056-.32.168-.432.112-.128.256-.192.432-.192h6.0476c.176 0 .32.064.432.192.112.112.168.256.168.432v2.736c0 1.36-.312 2.536-.936 3.528-.624.976-1.512 1.728-2.664 2.256-1.1356.512-2.4636.768-3.9836.768Zm9.0026-.24c-.128 0-.248-.048-.36-.144-.096-.112-.144-.232-.144-.36 0-.096.008-.168.024-.216l5.64-15.408c.048-.192.152-.352.312-.48s.368-.192.624-.192h3.552c.256 0 .464.064.624.192.16.128.264.288.312.48l5.616 15.408.048.216c0 .128-.056.248-.168.36-.096.096-.216.144-.36.144h-2.952c-.384 0-.64-.168-.768-.504l-.936-2.448h-6.408l-.912 2.448c-.128.336-.392.504-.792.504h-2.952Zm10.104-6.408-2.232-6.336-2.232 6.336h4.464ZM124.093 18c-.16 0-.304-.056-.432-.168-.112-.128-.168-.272-.168-.432V1.8c0-.176.056-.32.168-.432.128-.112.272-.168.432-.168h2.544c.4 0 .672.152.816.456l5.856 9.216V1.8c0-.176.056-.32.168-.432.128-.112.272-.168.432-.168h2.88c.176 0 .32.056.432.168.112.112.168.256.168.432v15.576c0 .176-.056.328-.168.456-.112.112-.256.168-.432.168h-2.568c-.352 0-.616-.152-.792-.456l-5.856-8.88V17.4c0 .16-.056.304-.168.432-.112.112-.256.168-.432.168h-2.88Zm17.25 0c-.16 0-.304-.056-.432-.168-.112-.128-.168-.272-.168-.432V1.8c0-.176.056-.32.168-.432.128-.112.272-.168.432-.168h3.168c.176 0 .32.056.432.168.112.112.168.256.168.432v12.576h7.272c.176 0 .32.064.432.192.112.112.168.256.168.432v2.4c0 .16-.056.304-.168.432-.112.112-.256.168-.432.168h-11.04Zm14.32 0c-.16 0-.304-.056-.432-.168-.112-.128-.168-.272-.168-.432V1.8c0-.176.056-.32.168-.432.128-.112.272-.168.432-.168h3.216c.176 0 .32.056.432.168.128.112.192.256.192.432v15.6c0 .176-.064.32-.192.432-.112.112-.256.168-.432.168h-3.216Zm7.781 0c-.16 0-.304-.056-.432-.168-.112-.128-.168-.272-.168-.432V1.8c0-.176.056-.32.168-.432.128-.112.272-.168.432-.168h3.024c.176 0 .32.056.432.168.112.112.168.256.168.432v5.328l4.44-5.472c.192-.304.504-.456.936-.456h3.456c.144 0 .264.056.36.168.096.096.144.208.144.336 0 .112-.024.208-.072.288l-5.76 7.248 6.192 7.968c.064.064.096.16.096.288 0 .128-.048.248-.144.36-.096.096-.216.144-.36.144h-3.576c-.384 0-.704-.16-.96-.48l-4.752-5.928V17.4c0 .176-.056.32-.168.432-.112.112-.256.168-.432.168h-3.024Zm15.914 0c-.16 0-.304-.056-.432-.168-.112-.128-.168-.272-.168-.432V1.8c0-.176.056-.32.168-.432.128-.112.272-.168.432-.168h3.168c.176 0 .32.056.432.168.112.112.168.256.168.432v12.576h7.272c.176 0 .32.064.432.192.112.112.168.256.168.432v2.4c0 .16-.056.304-.168.432-.112.112-.256.168-.432.168h-11.04Zm12.76 0c-.128 0-.248-.048-.36-.144-.096-.112-.144-.232-.144-.36 0-.096.008-.168.024-.216l5.64-15.408c.048-.192.152-.352.312-.48s.368-.192.624-.192h3.552c.256 0 .464.064.624.192.16.128.264.288.312.48l5.616 15.408.048.216c0 .128-.056.248-.168.36-.096.096-.216.144-.36.144h-2.952c-.384 0-.64-.168-.768-.504l-.936-2.448h-6.408l-.912 2.448c-.128.336-.392.504-.792.504h-2.952Zm10.104-6.408-2.232-6.336-2.232 6.336h4.464ZM210.858 18c-.16 0-.304-.056-.432-.168-.112-.128-.168-.272-.168-.432V1.8c0-.176.056-.32.168-.432.128-.112.272-.168.432-.168h6.528c2.096 0 3.728.48 4.896 1.44 1.184.944 1.776 2.288 1.776 4.032 0 1.12-.264 2.072-.792 2.856-.528.784-1.256 1.384-2.184 1.8l3.288 5.904c.048.096.072.184.072.264 0 .128-.056.248-.168.36-.096.096-.208.144-.336.144h-3.192c-.464 0-.792-.216-.984-.648l-2.736-5.28h-2.448V17.4c0 .176-.064.32-.192.432-.112.112-.256.168-.432.168h-3.096Zm6.48-9.336c.736 0 1.296-.176 1.68-.528.384-.368.576-.872.576-1.512s-.192-1.144-.576-1.512c-.368-.384-.928-.576-1.68-.576h-2.76v4.128h2.76ZM231.889 18c-.176 0-.328-.056-.456-.168-.112-.112-.168-.256-.168-.432v-1.704c0-.48.2-.872.6-1.176l2.496-2.448c1.456-1.12 2.56-1.992 3.312-2.616.752-.624 1.32-1.192 1.704-1.704.384-.512.576-1 .576-1.464 0-1.264-.624-1.896-1.872-1.896-.656 0-1.16.2-1.512.6-.352.384-.584.872-.696 1.464-.096.368-.368.552-.816.552h-3c-.144 0-.264-.048-.36-.144-.096-.096-.144-.216-.144-.36.032-1.024.312-1.96.84-2.808.544-.864 1.304-1.544 2.28-2.04.992-.512 2.128-.768001 3.408-.768001 1.344 0 2.496.216001 3.456.648001.96.432 1.688 1.04 2.184 1.824.496.784.744 1.696.744 2.736 0 1.12-.352 2.144-1.056 3.072-.688.912-1.744 1.904-3.168 2.976l-2.208 2.232h6.168c.176 0 .32.056.432.168.128.112.192.256.192.432V17.4c0 .176-.064.32-.192.432-.112.112-.256.168-.432.168h-12.312Zm23.22 0c-.16 0-.304-.056-.432-.168-.112-.128-.168-.272-.168-.432v-2.712h-7.464c-.176 0-.32-.056-.432-.168-.112-.112-.168-.256-.168-.432v-2.28c0-.24.088-.488.264-.744l6.984-9.456c.224-.272.52-.408.888-.408h3.504c.176 0 .32.056.432.168.112.112.168.256.168.432v9.312h2.112c.192 0 .344.064.456.192.112.112.168.248.168.408v2.376c0 .176-.056.32-.168.432-.112.112-.256.168-.432.168h-2.136V17.4c0 .16-.056.304-.168.432-.112.112-.256.168-.432.168h-2.976Zm-.504-6.72V5.616l-4.032 5.664h4.032Z" fill="#fff"/></svg>