<svg width="25" height="25" fill="none" xmlns="http://www.w3.org/2000/svg"><g clip-path="url(#a)"><path d="M1.56244 1.70122C-.40214 3.74185-.000057 5.90956-.000057 12.495c0 5.4687-.954167 10.951 4.039587 12.2416 1.55937.4011 15.37607.4011 16.93337-.002 2.0791-.5365 3.7708-2.223 4.002-5.1636.0323-.4104.0323-13.73436-.001-14.15311-.2458-3.13229-2.174-4.937501-4.7146-5.303126-.5823-.0843751-.6989-.109375-3.6864-.1145834C5.97598.0053889 3.65307-.466486 1.56244 1.70122Z" fill="url(#b)"/><path d="M12.4979 3.26965c-3.78227 0-7.37393-.33646-8.74581 3.18438-.56666 1.45416-.48437 3.34271-.48437 6.04687 0 2.3729-.07604 4.6031.48437 6.0458 1.36875 3.523 4.98958 3.1855 8.74371 3.1855 3.6219 0 7.3563.377 8.7448-3.1855.5677-1.4687.4844-3.3291.4844-6.0458 0-3.60625.199-5.93437-1.55-7.68229-1.7708-1.77083-4.1656-1.54896-7.6812-1.54896h.0041Zm-.8271 1.66354c7.8896-.0125 8.8938-.88958 8.3396 11.29481-.1969 4.3094-3.4781 3.8364-7.5114 3.8364-7.3542 0-7.56566-.2104-7.56566-7.5677 0-7.44267.58334-7.55934 6.73746-7.56559v.00208Zm5.7542 1.53229c-.6115 0-1.1073.49584-1.1073 1.1073 0 .61146.4958 1.10729 1.1073 1.10729.6115 0 1.1073-.49583 1.1073-1.10729 0-.61146-.4958-1.1073-1.1073-1.1073Zm-4.9271 1.2948c-2.61768 0-4.73956 2.12291-4.73956 4.74062 0 2.6177 2.12188 4.7396 4.73956 4.7396 2.6177 0 4.7386-2.1219 4.7386-4.7396 0-2.61771-2.1209-4.74062-4.7386-4.74062Zm0 1.66354c4.0677 0 4.0729 6.15418 0 6.15418-4.06664 0-4.07289-6.15418 0-6.15418Z" fill="#fff"/></g><defs><linearGradient id="b" x1="1.61038" y1="23.4034" x2="24.8452" y2="3.29391" gradientUnits="userSpaceOnUse"><stop stop-color="#FD5"/><stop offset=".5" stop-color="#FF543E"/><stop offset="1" stop-color="#C837AB"/></linearGradient><clipPath id="a"><path fill="#fff" d="M0 0h25v25H0z"/></clipPath></defs></svg>