<svg width="25" height="25" fill="none" xmlns="http://www.w3.org/2000/svg"><path d="M12.5 25C19.4036 25 25 19.4036 25 12.5 25 5.59644 19.4036 0 12.5 0 5.59644 0 0 5.59644 0 12.5 0 19.4036 5.59644 25 12.5 25Z" fill="#039BE5"/><path d="m5.7197 12.2291 12.0521-4.64684c.5594-.20208 1.0479.13646.8666.9823l.0011-.00105-2.0521 9.66769c-.1521.6854-.5594.8521-1.1292.5292l-3.125-2.3031-1.5073 1.452c-.1666.1667-.3072.3073-.6302.3073l.2219-3.1802 5.7917-5.23226c.2521-.22188-.0563-.34688-.3886-.12604l-7.15725 4.5062-3.08542-.9625c-.66979-.2125-.68437-.6697.14167-.9927Z" fill="#fff"/></svg>