<svg width="25" height="25" fill="none" xmlns="http://www.w3.org/2000/svg"><path d="M24.4849 6.49871c-.2882-1.07098-1.1326-1.91516-2.2034-2.20355-1.9563-.53539-9.7817-.53539-9.7817-.53539s-7.82529 0-9.78165.51498C1.66797 4.56295.80299 5.42793.514791 6.49871 0 8.45487 0 12.5118 0 12.5118s0 4.0773.514791 6.0131c.28839 1.0707 1.132579 1.9151 2.203549 2.2035 1.97677.5354 9.78156.5354 9.78156.5354s7.8253 0 9.7816-.515c1.071-.2882 1.9152-1.1326 2.2036-2.2033.5148-1.9564.5148-6.0131.5148-6.0131s.0206-4.07753-.515-6.03369Z" fill="red"/><path d="m10.0038 16.2605 6.5073-3.7479-6.5073-3.74795v7.49585Z" fill="#fff"/></svg>